<?xml version="1.0" encoding="UTF-8"?>
<svg width="238px" height="47px" viewBox="0 0 238 47" version="1.1" xmlns="http://www.w3.org/2000/svg" xmlns:xlink="http://www.w3.org/1999/xlink">
    <!-- Generator: Sketch 47.1 (45422) - http://www.bohemiancoding.com/sketch -->
    <title>Slice 1</title>
    <desc>Created with Sketch.</desc>
    <defs></defs>
    <g id="Page-1" stroke="none" stroke-width="1" fill="none" fill-rule="evenodd">
        <path d="M14.168,5.856 L14.168,36 L9.752,36 L9.752,5.856 L0.152,5.856 L0.152,1.632 L23.768,1.632 L23.768,5.856 L14.168,5.856 Z M27.224,28.8 C27.224,29.9520058 27.7119951,30.9119962 28.688,31.68 C29.6640049,32.4480038 30.8079934,32.832 32.12,32.832 C33.9760093,32.832 35.6319927,32.1440069 37.088,30.768 C38.5440073,29.3919931 39.272,27.7760093 39.272,25.92 C37.8959931,24.8319946 35.9760123,24.288 33.512,24.288 C31.719991,24.288 30.224006,24.7199957 29.024,25.584 C27.823994,26.4480043 27.224,27.5199936 27.224,28.8 Z M32.936,11.712 C36.2000163,11.712 38.7759906,12.5839913 40.664,14.328 C42.5520094,16.0720087 43.496,18.4639848 43.496,21.504 L43.496,36 L39.272,36 L39.272,32.736 L39.08,32.736 C37.2559909,35.4240134 34.8240152,36.768 31.784,36.768 C29.191987,36.768 27.0240087,36.0000077 25.28,34.464 C23.5359913,32.9279923 22.664,31.0080115 22.664,28.704 C22.664,26.2719878 23.5839908,24.3360072 25.424,22.896 C27.2640092,21.4559928 29.7199846,20.736 32.792,20.736 C35.4160131,20.736 37.5759915,21.2159952 39.272,22.176 L39.272,21.168 C39.272,19.6319923 38.6640061,18.3280054 37.448,17.256 C36.2319939,16.1839946 34.8080082,15.648 33.176,15.648 C30.7119877,15.648 28.7600072,16.6879896 27.32,18.768 L23.432,16.32 C25.5760107,13.2479846 28.743979,11.712 32.936,11.712 Z M60.92,36.768 C59.1919914,36.768 57.6160071,36.4000037 56.192,35.664 C54.7679929,34.9279963 53.6720038,33.9520061 52.904,32.736 L52.712,32.736 L52.712,36 L48.488,36 L48.488,1.632 L52.904,1.632 L52.904,12.48 L52.712,15.744 L52.904,15.744 C53.6720038,14.5279939 54.7679929,13.5520037 56.192,12.816 C57.6160071,12.0799963 59.1919914,11.712 60.92,11.712 C64.0240155,11.712 66.6479893,12.9279878 68.792,15.36 C71.000011,17.8240123 72.104,20.7839827 72.104,24.24 C72.104,27.7280174 71.000011,30.6879878 68.792,33.12 C66.6479893,35.5520122 64.0240155,36.768 60.92,36.768 Z M60.2,32.736 C62.3120106,32.736 64.0879928,31.936008 65.528,30.336 C66.9680072,28.7679922 67.688,26.7360125 67.688,24.24 C67.688,21.7759877 66.9680072,19.744008 65.528,18.144 C64.0879928,16.543992 62.3120106,15.744 60.2,15.744 C58.0559893,15.744 56.2640072,16.543992 54.824,18.144 C53.415993,19.744008 52.712,21.7759877 52.712,24.24 C52.712,26.7360125 53.415993,28.783992 54.824,30.384 C56.2640072,31.9520078 58.0559893,32.736 60.2,32.736 Z M119.576,20.208 C119.576,25.008024 118.152014,28.8319858 115.304,31.68 C112.103984,35.072017 107.896026,36.768 102.68,36.768 C97.687975,36.768 93.4640173,35.0400173 90.008,31.584 C86.5519827,28.1279827 84.824,23.8720253 84.824,18.816 C84.824,13.7599747 86.5519827,9.50401728 90.008,6.048 C93.4640173,2.59198272 97.687975,0.864 102.68,0.864 C105.208013,0.864 107.591989,1.31199552 109.832,2.208 C112.072011,3.10400448 113.911993,4.36799184 115.352,6 L112.184,9.168 C111.127995,7.8879936 109.760008,6.8880036 108.08,6.168 C106.399992,5.4479964 104.60001,5.088 102.68,5.088 C98.9359813,5.088 95.768013,6.38398704 93.176,8.976 C90.6159872,11.6000131 89.336,14.8799803 89.336,18.816 C89.336,22.7520197 90.6159872,26.0319869 93.176,28.656 C95.768013,31.248013 98.9359813,32.544 102.68,32.544 C106.104017,32.544 108.951989,31.5840096 111.224,29.664 C113.496011,27.7439904 114.807998,25.1040168 115.16,21.744 L102.68,21.744 L102.68,17.616 L119.336,17.616 C119.496001,18.5120045 119.576,19.3759958 119.576,20.208 Z M127.64,36 L123.224,36 L123.224,12.48 L127.448,12.48 L127.448,16.32 L127.64,16.32 C128.088002,15.0719938 129.007993,14.0080044 130.4,13.128 C131.792007,12.2479956 133.159993,11.808 134.504,11.808 C135.784006,11.808 136.871996,11.9999981 137.768,12.384 L136.424,16.656 C135.879997,16.4319989 135.016006,16.32 133.832,16.32 C132.167992,16.32 130.720006,16.9919933 129.488,18.336 C128.255994,19.6800067 127.64,21.247991 127.64,23.04 L127.64,36 Z M137.864,24.24 C137.864,20.6239819 138.999989,17.6320118 141.272,15.264 C143.576012,12.8959882 146.471983,11.712 149.96,11.712 C153.448017,11.712 156.327989,12.8959882 158.6,15.264 C160.904012,17.6320118 162.056,20.6239819 162.056,24.24 C162.056,27.8880182 160.904012,30.8799883 158.6,33.216 C156.327989,35.5840118 153.448017,36.768 149.96,36.768 C146.471983,36.768 143.576012,35.5840118 141.272,33.216 C138.999989,30.8479882 137.864,27.8560181 137.864,24.24 Z M142.28,24.24 C142.28,26.7680126 143.015993,28.8159922 144.488,30.384 C145.960007,31.9520078 147.783989,32.736 149.96,32.736 C152.136011,32.736 153.959993,31.9520078 155.432,30.384 C156.904007,28.8159922 157.64,26.7680126 157.64,24.24 C157.64,21.7439875 156.904007,19.7120078 155.432,18.144 C153.927992,16.543992 152.104011,15.744 149.96,15.744 C147.815989,15.744 145.992008,16.543992 144.488,18.144 C143.015993,19.7120078 142.28,21.7439875 142.28,24.24 Z M186.488,36 L182.264,36 L182.264,32.736 L182.072,32.736 C181.399997,33.8880058 180.368007,34.8479962 178.976,35.616 C177.583993,36.3840038 176.136008,36.768 174.632,36.768 C171.751986,36.768 169.536008,35.9440082 167.984,34.296 C166.431992,32.6479918 165.656,30.3040152 165.656,27.264 L165.656,12.48 L170.072,12.48 L170.072,26.976 C170.168,30.8160192 172.103981,32.736 175.88,32.736 C177.640009,32.736 179.111994,32.0240071 180.296,30.6 C181.480006,29.1759929 182.072,27.4720099 182.072,25.488 L182.072,12.48 L186.488,12.48 L186.488,36 Z M203.384,32.736 C205.496011,32.736 207.271993,31.936008 208.712,30.336 C210.152007,28.7679922 210.872,26.7360125 210.872,24.24 C210.872,21.7759877 210.152007,19.744008 208.712,18.144 C207.271993,16.543992 205.496011,15.744 203.384,15.744 C201.239989,15.744 199.448007,16.543992 198.008,18.144 C196.599993,19.744008 195.896,21.7759877 195.896,24.24 C195.896,26.7360125 196.599993,28.783992 198.008,30.384 C199.448007,31.9520078 201.239989,32.736 203.384,32.736 Z M204.104,36.768 C202.375991,36.768 200.800007,36.4000037 199.376,35.664 C197.951993,34.9279963 196.856004,33.9520061 196.088,32.736 L195.896,32.736 L196.088,36 L196.088,46.368 L191.672,46.368 L191.672,12.48 L195.896,12.48 L195.896,15.744 L196.088,15.744 C196.856004,14.5279939 197.951993,13.5520037 199.376,12.816 C200.800007,12.0799963 202.375991,11.712 204.104,11.712 C207.208016,11.712 209.831989,12.9279878 211.976,15.36 C214.184011,17.8240123 215.288,20.7839827 215.288,24.24 C215.288,27.7280174 214.184011,30.6879878 211.976,33.12 C209.831989,35.5520122 207.208016,36.768 204.104,36.768 Z M237.08,29.472 C237.08,31.5200102 236.184009,33.247993 234.392,34.656 C232.599991,36.064007 230.344014,36.768 227.624,36.768 C225.255988,36.768 223.176009,36.1520062 221.384,34.92 C219.591991,33.6879938 218.312004,32.0640101 217.544,30.048 L221.48,28.368 C222.056003,29.776007 222.895994,30.8719961 224,31.656 C225.104006,32.4400039 226.311993,32.832 227.624,32.832 C229.032007,32.832 230.207995,32.528003 231.152,31.92 C232.096005,31.311997 232.568,30.5920042 232.568,29.76 C232.568,28.2559925 231.416012,27.1520035 229.112,26.448 L225.08,25.44 C220.503977,24.2879942 218.216,22.0800163 218.216,18.816 C218.216,16.6719893 219.087991,14.9520065 220.832,13.656 C222.576009,12.3599935 224.807986,11.712 227.528,11.712 C229.60801,11.712 231.487992,12.207995 233.168,13.2 C234.848008,14.192005 236.023997,15.5199917 236.696,17.184 L232.76,18.816 C232.311998,17.823995 231.584005,17.0480028 230.576,16.488 C229.567995,15.9279972 228.440006,15.648 227.192,15.648 C226.039994,15.648 225.008005,15.9359971 224.096,16.512 C223.183995,17.0880029 222.728,17.7919958 222.728,18.624 C222.728,19.9680067 223.991987,20.9279971 226.52,21.504 L230.072,22.416 C234.744023,23.5680058 237.08,25.9199822 237.08,29.472 Z" id="Tab-Groups" fill="#757575"></path>
    </g>
</svg>
